<?xml version="1.0" encoding="utf-8"?>
<!-- Generator: Adobe Illustrator 21.1.0, SVG Export Plug-In . SVG Version: 6.00 Build 0)  -->
<svg version="1.1" id="Layer_1" xmlns="http://www.w3.org/2000/svg" xmlns:xlink="http://www.w3.org/1999/xlink" x="0px" y="0px"
	 viewBox="0 0 612 792" style="enable-background:new 0 0 612 792;" xml:space="preserve">
<style type="text/css">
	.st0{fill:#F15F32;stroke:#000000;stroke-width:9;stroke-linejoin:round;stroke-miterlimit:10;}
	.st1{display:none;fill:#F15F32;}
	.st2{fill:none;stroke:#000000;stroke-width:9;stroke-linecap:round;stroke-miterlimit:10;}
</style>
<path class="st0" d="M162.1,276c19.7-16.1,38.5,55.8,38.5,55.8s-5.5-82.6,10.1-96.7s73.6,118.1,73.6,118.1s-0.1-135.1,21.6-148.6
	s38.1,134.7,38.1,134.7s48.3-99.4,65.3-95.8c16.9,3.6-16.7,187.5-16.7,187.5L140.5,433C140.5,433,143.1,291.5,162.1,276z"/>
<g>
	<path class="st1" d="M162.2,280.9c20.8-14.6,55.6,98.6,55.6,98.6L159,434.8C159,434.8,141.3,295.6,162.2,280.9z"/>
</g>
<path class="st2" d="M200.7,331.8c0,0,11.9,35.7,23.8,40.2"/>
</svg>
